<svg xmlns="http://www.w3.org/2000/svg" viewBox="0 0 118.22 53.63"><defs><style>.cls-1{fill:#fff;fill-rule:evenodd;}</style></defs><title>Logo</title><g id="Layer_2" data-name="Layer 2"><g id="Website"><g id="HEADER"><g id="Logo"><path class="cls-1" d="M47.3,32.54c0-5.58,0-11.16,0-16.74,0-3,0-5.94,0-8.9a6,6,0,0,0-2.46-5.09A7.08,7.08,0,0,0,40.7.61c-3.47,0-6.94,0-10.41,0-4.51.08-6.75,3-6.66,6.71.11,4.12,0,8.25,0,12.37V32.22c0,2,.05,2,2.05,1.88H26a.7.7,0,0,0,.75-.75c0-.35,0-.71,0-1.06,0-5.58,0-11.16,0-16.74a15.51,15.51,0,0,1,.05-1.81,3.35,3.35,0,0,1,3-3,3.33,3.33,0,0,1,4.07,3.32c.1,2.11,0,4.23,0,6.34,0,2.66,0,5.33,0,8,0,.39-.14.91.3,1.09a3.57,3.57,0,0,0,2.37,0c.71-.21.44-.93.44-1.44,0-4.32,0-8.65,0-13a9.44,9.44,0,0,1,.07-1.51,3.39,3.39,0,0,1,3.65-2.89,3.16,3.16,0,0,1,3.34,3,24,24,0,0,1,.08,2.4q0,8,0,16c0,.4,0,.8,0,1.2s.08.58.31.64a4.58,4.58,0,0,0,2.38,0C47.57,33.79,47.3,33.06,47.3,32.54ZM33.93,8.4a7.78,7.78,0,0,0-7.09.07c-.23-2-.18-3.64,1.52-4.73a4,4,0,0,1,4.26.17C34.09,5,34,6.61,33.93,8.4Zm10.3,0a7.73,7.73,0,0,0-7.11,0c-.26-1.82-.26-3.45,1.32-4.55a3.7,3.7,0,0,1,4.13-.17C44.37,4.73,44.25,6.49,44.23,8.45Z"/><path class="cls-1" d="M68.24,16.87c-.83-.94-.84-1,0-1.94a9.7,9.7,0,0,0,2.11-6.18A8.69,8.69,0,0,0,65.37,1a8.89,8.89,0,0,0-9.55.78,3.49,3.49,0,0,1-2.19.78c-1.49,0-1.51,0-1.51,1.47,0,7.08,0,14.17,0,21.26a9.15,9.15,0,0,0,7.94,9.18,9,9,0,0,0,10.24-6.06C71.64,24.32,71.3,20.31,68.24,16.87Zm-11-12.14a5.81,5.81,0,0,1,6.46-1c2.3,1,3.28,3,3.5,5.33a6.48,6.48,0,0,1-1.79,4.24,1.18,1.18,0,0,1-1.71.23c-1.67-1.1-3.39-2.13-5.08-3.21a11.45,11.45,0,0,1-1.32-1C55.38,7.63,55.34,6.41,57.24,4.73Zm7.84,25.69a6.34,6.34,0,0,1-9.6-3.48,15,15,0,0,1-.27-3.8c0-1.14,0-2,0-2.94s.45-1.16,1.12-.68c2.36,1.71,5,3,7.29,4.78a12.8,12.8,0,0,1,2.1,1.93C67,27.86,66.82,29.24,65.08,30.42Zm2.56-6.75c-2.76-2.8-6.34-4.39-9.44-6.67a14.1,14.1,0,0,1-1.71-1.47,4.39,4.39,0,0,1-1.26-3.83c3,2.33,6.29,3.93,9.25,6a7.51,7.51,0,0,1,3.25,4.72A1.47,1.47,0,0,1,67.64,23.67Z"/><path class="cls-1" d="M94.54,23.25a.64.64,0,0,0-.68-.66h-.75c-1.7,0-1.7,0-1.72,1.62,0,.46,0,.91,0,1.36a6.36,6.36,0,0,1-2.56,4.75,1.28,1.28,0,0,1-1.76.05,6.1,6.1,0,0,1-2.58-4.09,51.88,51.88,0,0,1-.11-6.48c0-.65.38-.86,1-.84s1.4,0,2.11,0c2,0,2-.06,1.9-2.05-.06-1.05-.15-1.14-1.28-1.17-.9,0-1.81,0-2.71,0-.7,0-1-.26-1-1,0-2,0-4,.09-6A5.85,5.85,0,0,1,86.9,4.41a1.32,1.32,0,0,1,1.87,0,6.46,6.46,0,0,1,2.62,4.89c0,.65,0,1.3,0,2,0,.36.06.75.49.82a6,6,0,0,0,2.24,0c.42-.08.43-.51.43-.86,0-.85,0-1.71,0-2.56A9.41,9.41,0,0,0,79.84,1.66a4.4,4.4,0,0,1-2.77.88c-1.34-.06-1.36,0-1.36,1.34q0,5.43,0,10.86c0,3.57-.07,7.14,0,10.7a8.85,8.85,0,0,0,5,8.16A9.17,9.17,0,0,0,91,32.68C94.09,30.32,94.83,26.94,94.54,23.25ZM79.06,7.79A5.44,5.44,0,0,1,83,3.68a11.33,11.33,0,0,0-1.77,5.18c-.09,1.6,0,3.21,0,4.82a9,9,0,0,1,0,.9c0,.38.19.88-.25,1.1a2.45,2.45,0,0,1-1.77.06.55.55,0,0,1-.37-.59C78.85,12.69,78.47,10.2,79.06,7.79Zm-.24,17.76c-.11-1.9-.06-3.82,0-5.72,0-.87.16-.9,1.32-.93.71,0,1.13.13,1.09,1-.06,1.15,0,2.31,0,3.46a11.57,11.57,0,0,0,2,7.71A5.93,5.93,0,0,1,78.82,25.55Z"/><path class="cls-1" d="M18.91,9.37A9.4,9.4,0,0,0,6.61.47,9.34,9.34,0,0,0,0,9.43c0,3.82,0,7.64,0,11.46V32.51C0,34.1,0,34.1,1.58,34.1s1.65,0,1.65-1.68c0-.35,0-.7,0-1.05a3.5,3.5,0,0,1,1.3-2.92A11.92,11.92,0,0,1,8,26.35a60.53,60.53,0,0,0,6.69-2.73c.63-.36.92-.16,1,.56a9.61,9.61,0,0,1,0,1.2v7.25c0,1.43,0,1.45,1.41,1.47h.45c1.32,0,1.36,0,1.36-1.35C18.93,25,19,17.16,18.91,9.37ZM14.28,20a13.2,13.2,0,0,1-3.83,2,30.34,30.34,0,0,0-7.1,3.25,3.2,3.2,0,0,1,.48-2.91,8.29,8.29,0,0,1,2.56-2.08A18.65,18.65,0,0,1,9.56,19a24.27,24.27,0,0,0,6-2.73A3.46,3.46,0,0,1,14.28,20Zm-1.12-6a19.78,19.78,0,0,1-3.42,1.54,32,32,0,0,0-5.25,2.23c-1,.54-1.22.36-1.25-.76,0-1.35,0-2.71,0-4.06h0c0-1.21,0-2.41,0-3.61a6.06,6.06,0,0,1,6.13-6.1,6.27,6.27,0,0,1,6.36,6.09A4.57,4.57,0,0,1,13.16,14Z"/><path class="cls-1" d="M118.18,26.53a9.38,9.38,0,0,0-1.83-5.63,10.87,10.87,0,0,0-2.3-2.14c-.83-.59-.81-.79,0-1.46.11-.1.24-.18.36-.27a9,9,0,0,0,3.54-9.46,9.29,9.29,0,0,0-14.17-6.1,1.32,1.32,0,0,0-.88.61h0a.32.32,0,0,0-.31.27h0a2.19,2.19,0,0,0-.37.25,9.56,9.56,0,0,0-2.92,7.17q0,11.29,0,22.58c0,.25,0,.5,0,.76,0,.68.28,1,1,1H101c1.41,0,1.44,0,1.46-1.42,0-2.46,0-4.92,0-7.37a4,4,0,0,1,.2-1.78,1.49,1.49,0,0,1,.87.16,34.74,34.74,0,0,0,5.19,2.37,18.6,18.6,0,0,1,3.85,2,4.79,4.79,0,0,1,2.4,4.55,4,4,0,0,0,0,.6.81.81,0,0,0,1,.87H117c1.09,0,1.17-.1,1.18-1.24C118.21,30.75,118.24,28.64,118.18,26.53Zm-15-23.87h0Zm1.93,1.56a8.11,8.11,0,0,1,3.71-1,5.86,5.86,0,0,1,5.67,3.73,6,6,0,0,1-1.13,6.84,10.19,10.19,0,0,1-3.91,2.46,3.29,3.29,0,0,1-1.62,0,7.58,7.58,0,0,0-1.84-.93.37.37,0,0,0-.37-.24h0l-1.49-1.23a7.44,7.44,0,0,1-1.61-3.8A6.87,6.87,0,0,1,105.07,4.22ZM106.77,22a15.74,15.74,0,0,1-3.54-2.47h0a5.1,5.1,0,0,1-.73-2.85c.65.08.94.76,1.54.85a12.37,12.37,0,0,0,4.13,2A19.87,19.87,0,0,1,112,21.18,5.62,5.62,0,0,1,115,25.89,35,35,0,0,0,106.77,22Z"/><path class="cls-1" d="M28.81,42.9c.31,0,.63.09.69.44s-.24.39-.47.47l-.29.09c-.56.19-1.33,0-1.7.47s-.21,1.35-.24,2c-.06,1.09,0,2.2-.06,3.3,0,.34.06.79-.41.81s-.59-.35-.65-.72a5.26,5.26,0,0,1-.06-.89c0-.9.08-1.8.13-2.7,0-.55.27-1.16,0-1.63s-.93-.06-1.4-.2c-.24-.07-.53-.09-.57-.39s.3-.45.58-.52C25.82,43.06,27.36,43.31,28.81,42.9Z"/><path class="cls-1" d="M31.8,47.22A3.9,3.9,0,0,0,31,49.39c-.05.33-.08.75-.57.71a.61.61,0,0,1-.54-.63c-.07-2-.12-4,0-6a.49.49,0,0,1,.45-.52c.35,0,.47.32.47.65v3.16c.36.09.42-.32.66-.45.64-.32,1.13-.21,1.3.46a29.7,29.7,0,0,1,.53,3.11.46.46,0,0,1-.23.34c-.21.13-.37,0-.5-.2a2,2,0,0,1-.34-1A4.61,4.61,0,0,0,31.8,47.22Z"/><path class="cls-1" d="M72.13,49.14a2.7,2.7,0,0,0,.71-1.79c0-1,.08-1.9.13-2.85a2.09,2.09,0,0,1,.46-1.4c.18-.19.4-.33.66-.18a.45.45,0,0,1,.16.64c-.6,1.17-.31,2.46-.54,3.69-.13.74.08,1.18,1,1,.12,0,.28.06.41.08,0,.18.09.39-.06.43-1.15.34-1.33,1.16-1.19,2.21a18.34,18.34,0,0,1,.09,2.1c0,.23,0,.53-.31.58a.51.51,0,0,1-.61-.5c-.1-.9-.15-1.8-.2-2.69,0-.41,0-.82-.42-1A.85.85,0,0,1,72.13,49.14Z"/><path class="cls-1" d="M82,44c-.2,0-.4,0-.6,0-1.3.19-1.34.19-1.4,1.46-.07,1.45-.07,2.9-.09,4.35,0,.3,0,.67-.36.71A.58.58,0,0,1,79,50a8.78,8.78,0,0,1-.11-1.35c0-.85.09-1.7.12-2.55a3.48,3.48,0,0,0,0-1.48c-.26-.54-.91-.06-1.37-.21-.28-.1-.65-.11-.62-.5s.34-.38.58-.39a15.6,15.6,0,0,1,2.66-.33,5.9,5.9,0,0,0,2.07-.33c.29.11.53.29.5.62S82.4,44,82,44Z"/><path class="cls-1" d="M42,43.47c.43,0,.65.17.69.42s-.2.39-.43.53a3.43,3.43,0,0,0-.67,5.8,5.33,5.33,0,0,0,.74.5c.21.14.44.29.32.59s-.38.27-.64.19a4.26,4.26,0,0,1-2.69-4,4,4,0,0,1,2.25-3.93C41.7,43.54,41.89,43.49,42,43.47Z"/><path class="cls-1" d="M54.86,43.71a4.5,4.5,0,0,0,0,1.51c.3.43,2.29-.34.93,1.29l-.35.26c-.72.51-.56,1.21-.4,1.89s.33,1.17-.18,1.68c-.45.06-.79-.07-.9-.55a6.54,6.54,0,0,1-.09-.89c-.08-1,.13-2.1-1.32-2.23a.65.65,0,0,1,.56-.54c.57-.09.7-.49.69-1,0-.74-.06-1.48-.1-2.22C54.73,42.25,54.81,43,54.86,43.71Z"/><path class="cls-1" d="M65.76,49.61a11.18,11.18,0,0,0-.93-3.45c-1.06-.09-1.18.92-1.7,1.47-.37-.3-.28-.73-.36-1.1s-.21-.47-.5-.44-.39.29-.39.55c0,.9,0,1.8,0,2.71s.53.82,1.14.63l1.33-2.54c.22,1,.36,1.71.54,2.42a.53.53,0,0,0,.54.43C65.85,50.24,65.82,49.89,65.76,49.61Z"/><path class="cls-1" d="M61.4,47.34a4.34,4.34,0,0,0,0,1.08A1.74,1.74,0,0,0,61.4,47.34Z"/><path class="cls-1" d="M44.93,47.05a5,5,0,0,0-1.13,2.72c0,.33-.14.59-.52.59s-.47-.3-.48-.61c0-1,0-2,0-3,0-.29-.16-.65.21-.79s.57.24.71.55a2,2,0,0,0,.14.25c.39-.06.39-.58.76-.66.62-.21.92-.09.66.62h0A2.35,2.35,0,0,0,44.93,47.05Z"/><path class="cls-1" d="M83.46,45.86c.12.09.32.17.34.27a10.12,10.12,0,0,1,.25,4.17l-.1,0-.09.05a.56.56,0,0,1-.59-.32l-.36-2.66a1,1,0,0,1,.06-1.2v0a.59.59,0,0,1,.41-.29Z"/><path class="cls-1" d="M56.35,49.14c0-.84,0-1.67-.07-2.51,0-.34.11-.61.47-.63s.51.2.53.55a5.92,5.92,0,0,0,.3,2.33.19.19,0,0,0,0,.26c.36.55.2.93-.38,1.17A1.33,1.33,0,0,1,56.35,49.14Z"/><path class="cls-1" d="M90.77,50.33a2.92,2.92,0,0,0,.31-.61s0,0,0,0c-.4-1.14-.19-2.39-.64-3.52h0c-.27-.3-.56-.22-.85,0l-.92,1.2c-.15.14-.19.53-.55.27l-.06-.54c-.25-.48,0-1.27-.84-1.38-.55-.08-.72.38-.92.78h0c-.39.24-.46-.16-.65-.32h0c-.44-.1-.89,0-.8.52a10.1,10.1,0,0,1,0,2.69.94.94,0,0,0,.57,1h.12a.44.44,0,0,0,.36-.32h0a9.41,9.41,0,0,1,1-2.76A6.66,6.66,0,0,1,87.52,50c.63,1,.87.28,1.16-.27h0c.34-.22.1-.63.31-.9h0c.16-.17.11-.45.29-.61,1,0,.1,1,.62,1.21l.07.08,0,.1c.16.38,0,1.16.83.71Z"/><path class="cls-1" d="M60.25,46.19a1.67,1.67,0,0,0-1.7.28"/><path class="cls-1" d="M56.8,44.56c-.19-.24-.67-.43-.3-.78s.77,0,1,.31a.17.17,0,0,0,0,.18c.05.27-.17.24-.32.3Z"/><path class="cls-1" d="M83,44.23c.1-.57.44-.8.93-.47s.08.58-.16.81l-.1,0-.11,0a.59.59,0,0,1-.57-.32Z"/><path class="cls-1" d="M45.23,46.72a.6.6,0,0,0-.66-.62.48.48,0,0,1,.84-.07C45.66,46.29,45.54,46.56,45.23,46.72Z"/><path class="cls-1" d="M58.57,46.45c-.21.44-.42.89-.62,1.33"/><path class="cls-1" d="M49.19,47.35a.81.81,0,0,1-.31.66A.52.52,0,0,1,49.19,47.35Z"/><path class="cls-1" d="M49.85,46.46a.78.78,0,0,1-.42.53C49.45,46.71,49.55,46.51,49.85,46.46Z"/><path class="cls-1" d="M47.67,48.25A.3.3,0,0,1,48,48Z"/><path class="cls-1" d="M48,48l.23-.31A.31.31,0,0,1,48,48Z"/><path class="cls-1" d="M49.42,47a.34.34,0,0,1-.24.36A.39.39,0,0,1,49.42,47Z"/><path class="cls-1" d="M44.93,47.05l.3-.33A.37.37,0,0,1,44.93,47.05Z"/><path class="cls-1" d="M72.13,49.14l.25.25C72.19,49.42,72.11,49.33,72.13,49.14Z"/><path class="cls-1" d="M48,49.16a.26.26,0,0,1-.33.22A.35.35,0,0,1,48,49.16Z"/><path class="cls-1" d="M47,49.39c-.2,0-.29-.07-.29-.26Z"/><path class="cls-1" d="M52.21,46.87c-.12-.59-.59-.76-1.11-.83a2,2,0,0,0-1.25.42c-.28.07-.2.42-.42.53v0c-.06.13-.18.21-.23.34h0v0c-.24.16-.19.45-.31.66a.17.17,0,0,1-.07.22,3,3,0,0,0-.2.94.88.88,0,0,0,.19.43c.35.88,1,.76,1.54.32a11.36,11.36,0,0,0,1.15-1c.15.46.3.94.48,1.4a.45.45,0,0,0,.49.27.36.36,0,0,0,.3-.44C52.59,49,52.41,48,52.21,46.87ZM51,47.41a.25.25,0,0,1-.08.23,1,1,0,0,0-.23.39.18.18,0,0,1-.09.21l-.23.34c-.09.23-.21.53-.47.47s-.16-.4-.1-.61a3.39,3.39,0,0,1,.29-.52.73.73,0,0,0,.23-.41.15.15,0,0,1,.09-.19,1.74,1.74,0,0,1,.25-.29h0c.12-.19.29-.33.46-.14S51.14,47.26,51,47.41Z"/><path class="cls-1" d="M50.37,48.58l.23-.34Z"/><path class="cls-1" d="M50.69,48l.23-.39Z"/><path class="cls-1" d="M50.32,47.51a.5.5,0,0,1-.23.41C50.17,47.79,50.24,47.64,50.32,47.51Z"/><path class="cls-1" d="M50.66,47l-.25.29A.32.32,0,0,1,50.66,47Z"/><path class="cls-1" d="M60.87,46.47h0c-.14-.25-.42-.21-.64-.3h0c-.68-.57-1.25-.56-1.69.27h0l0,0h0A2.06,2.06,0,0,0,58,47.78c0,.45,0,.89,0,1.34-.16.7.48.68.83.92a2.56,2.56,0,0,0,1.5,0C61.93,49,62.15,47.64,60.87,46.47Zm-.74,2.2c-.17.31-.42.64-.79.55s-.48-.57-.44-1,.14-1,.73-1.18a.48.48,0,0,1,.64.21A1.48,1.48,0,0,1,60.13,48.67Z"/><path class="cls-1" d="M70.47,46.13c-.71-.2-1.26.08-1.64.91a3.25,3.25,0,0,0-.35,1.59,1.57,1.57,0,0,0,2.4,1.26A3,3,0,0,0,72,48C72.12,47.12,71.56,46.43,70.47,46.13Zm.44,1.81a1.48,1.48,0,0,1-.83,1.28.39.39,0,0,1-.5-.2,1.49,1.49,0,0,1,.06-1.42c.16-.4.43-.68.91-.54S70.92,47.57,70.91,47.94Z"/><path class="cls-1" d="M94.52,49.33c-.17-.37-.5-.09-.76,0a.85.85,0,0,1-.73.05.74.74,0,0,1-.49-.69c0-.32.28-.32.52-.4,1.27-.43,1.4-.73,1-2.11a1.22,1.22,0,0,0-1.77-.09h0a.9.9,0,0,0-.56.64h0a4.46,4.46,0,0,0-.11,2.68,1.85,1.85,0,0,0,2.38.69C94.37,50,94.68,49.67,94.52,49.33Zm-1.47-2.58c.2,0,.39.09.39.33s-.22.5-.54.55a.23.23,0,0,1-.3-.22A.63.63,0,0,1,93.05,46.75Z"/><path class="cls-1" d="M36.16,49.11h0c-.13.22-.41.14-.57.3h-.3a1.57,1.57,0,0,1-.61-.59h0s0,0-.07-.1a.18.18,0,0,1,.08-.19h0c.31-.37.87.06,1.17-.36l.17-.24c.49-.93.44-1.47-.15-1.81a1.46,1.46,0,0,0-2,.75,2.88,2.88,0,0,0-.25,2,1.67,1.67,0,0,0,1.54,1.4,1.31,1.31,0,0,0,1.56-1.06C36.61,48.92,36.39,49,36.16,49.11Zm-1-2.37c.22,0,.41.1.41.34s-.24.49-.55.55a.23.23,0,0,1-.3-.22A.67.67,0,0,1,35.11,46.74Z"/><path class="cls-1" d="M48.8,49c-.3-.07-.6-.14-.84.13h0a2.2,2.2,0,0,1-.32.21.57.57,0,0,1-.6,0,.91.91,0,0,1-.29-.26h0c-.47-1.09.63-.55.91-.86h0A.51.51,0,0,1,48,48L48,48a.59.59,0,0,1,.23-.31h0a1.11,1.11,0,0,0,0-1.2c-1.08-.58-1.7-.54-2.24.14a3.08,3.08,0,0,0-.24,2.87,1.7,1.7,0,0,0,2.19.74,5.49,5.49,0,0,0,.87-.58Zm-2.24-1.8c.11-.27.24-.56.63-.5a.37.37,0,0,1,.29.45.58.58,0,0,1-.67.46C46.56,47.63,46.47,47.47,46.56,47.24Z"/></g></g></g></g></svg>